<svg xmlns="http://www.w3.org/2000/svg" viewBox="0 0 256 256" fill="none">
  <defs>
    <linearGradient id="hospitalBadge" x1="0" y1="0" x2="1" y2="1">
      <stop offset="0%" stop-color="#0ea5e9" />
      <stop offset="100%" stop-color="#22c55e" />
    </linearGradient>
    <linearGradient id="hospitalGlass" x1="0" y1="0" x2="0" y2="1">
      <stop offset="0%" stop-color="#ffffff" stop-opacity="0.9" />
      <stop offset="100%" stop-color="#dbeafe" stop-opacity="0.85" />
    </linearGradient>
  </defs>

  <circle cx="128" cy="128" r="112" fill="url(#hospitalBadge)" />
  <circle cx="128" cy="128" r="112" stroke="#ffffff" stroke-opacity="0.28" stroke-width="4" />

  <rect x="72" y="106" width="112" height="92" rx="14" fill="#0f172a" opacity="0.88" />
  <rect x="96" y="74" width="64" height="124" rx="12" fill="#0c4a6e" />
  <rect x="106" y="84" width="44" height="40" rx="10" fill="url(#hospitalGlass)" />

  <rect x="122" y="92" width="12" height="32" rx="3" fill="#0f172a" />
  <rect x="112" y="102" width="32" height="12" rx="3" fill="#0f172a" />

  <rect x="92" y="136" width="22" height="24" rx="4" fill="#bae6fd" />
  <rect x="142" y="136" width="22" height="24" rx="4" fill="#bae6fd" />
  <rect x="92" y="168" width="22" height="24" rx="4" fill="#bae6fd" />
  <rect x="142" y="168" width="22" height="24" rx="4" fill="#bae6fd" />

  <rect x="116" y="166" width="24" height="32" rx="6" fill="#1f2937" />
  <circle cx="136" cy="182" r="4" fill="#fbbf24" />

  <path d="M64 200H192" stroke="#ffffff" stroke-opacity="0.45" stroke-width="4" stroke-linecap="round" />
</svg>
